<?xml version="1.0" encoding="UTF-8"?>
<svg id="Capa_3" data-name="Capa 3" xmlns="http://www.w3.org/2000/svg" viewBox="0 0 255.38 255.38">
  <defs>
    <style>
      .cls-1, .cls-2 {
        fill: none;
      }

      .cls-2 {
        stroke: #1d1d1b;
        stroke-miterlimit: 10;
        stroke-width: 10px;
      }
    </style>
  </defs>
  <g>
    <path class="cls-2" d="M64.76,42.17c35.2.36,70.4.72,105.6,1.07.64.17,2.61.8,4,2.76.85,1.19,1.14,2.38,1.25,3.06v12.1c-.42,43.63-.83,87.25-1.25,130.88,0,.5-.1,2.63-1.75,4.34-1.13,1.17-2.42,1.57-3,1.7h-105.51c-.52-.15-3.22-.96-4.73-3.76-1.11-2.06-.95-4.04-.86-4.75V49.31c.06-.77.31-2.45,1.5-4.09,1.7-2.33,4.11-2.93,4.75-3.06Z"/>
    <path class="cls-2" d="M176.09,60.29c.98-.07,2.42-.09,4.22.18.09.01.25.04.41.07,1.08.2,3.06.56,5.01,1.91,2.5,1.73,3.67,4.18,4.17,5.5v137.31c-.12.66-.8,4.1-3.97,6.23-2.07,1.39-4.25,1.49-5.14,1.51-9.99.24-49.36-.03-56.87.03-8.82.07-40.31,1.08-48.98-1.4-4.71-1.35-8.43-4.25-8.43-4.25-1.97-1.54-3.15-2.99-3.64-3.62-.41-.53-1.68-2.23-2.73-4.77-1.47-3.55-1.64-6.65-1.72-8.16-.02-.46-.01-1.58,0-3.83.01-2.13.04-3.88.06-5.05"/>
  </g>
  <rect class="cls-1" width="255.38" height="255.38"/>
</svg>