<?xml version="1.0" encoding="UTF-8"?>
<svg id="Capa_1" data-name="Capa 1" xmlns="http://www.w3.org/2000/svg" viewBox="0 0 246.34 246.34">
  <defs>
    <style>
      .cls-1 {
        fill: #fff;
      }

      .cls-2 {
        fill: #e3653b;
      }
    </style>
  </defs>
  <g id="Capa_1-2" data-name="Capa 1">
    <circle class="cls-2" cx="123.17" cy="123.17" r="123.17"/>
  </g>
  <g id="Capa_2" data-name="Capa 2">
    <path class="cls-1" d="M184.95,167.54c-.09-.09-1.16-1.27-2.27-2.75-.56-.74-1.13-1.55-1.6-2.31-.46-.76-.81-1.48-.93-1.88-.46-1.44-.79-3.14-1-4.44-.02-.05-.02-.11-.02-.16,4-2.5,7.4-5.62,9.93-9.26,2.94-4.26,4.69-9.26,4.69-14.57,0-4.32-1.14-8.45-3.17-12.14-3.05-5.53-8-10.06-14.07-13.23-6.09-3.17-13.33-4.97-21.08-4.97-10.34,0-19.78,3.21-26.76,8.58-3.49,2.7-6.38,5.94-8.4,9.62-2.03,3.68-3.17,7.8-3.17,12.14s1.14,8.45,3.17,12.14c3.05,5.53,8,10.06,14.07,13.23,6.09,3.17,13.33,4.97,21.08,4.97,1.76,0,3.47-.12,5.16-.3,1.29,1.92,3.31,4.42,6.25,6.45,1.5,1,3.14,1.74,4.79,2.34,2.48.9,5,1.5,6.96,1.9,1.94.39,3.29.56,3.35.58l9.65,1.25-6.62-7.19h-.01ZM170.79,162.78c-2.45-1.64-4.3-4.3-5.09-5.69l-.07-.11-.37-.55-1.25-1.85-2.2.34c-2.06.32-4.19.49-6.39.49-8.88,0-16.86-2.78-22.46-7.12-2.8-2.17-5.02-4.7-6.52-7.43s-2.29-5.65-2.31-8.74c0-3.08.81-6.01,2.31-8.74,2.24-4.1,6.11-7.75,11.15-10.36,5.02-2.62,11.18-4.17,17.84-4.17,8.88,0,16.86,2.78,22.46,7.12,2.8,2.17,5.02,4.7,6.52,7.43s2.29,5.65,2.31,8.74c0,3.77-1.2,7.33-3.43,10.57-2.22,3.22-5.5,6.09-9.56,8.3l-1.76.95-.07,2.01v.44l.02.21c0,.05.11,1.11.34,2.62.25,1.52.62,3.49,1.23,5.48.19.58.42,1.11.67,1.64-.11-.04-.21-.07-.32-.11-1.23-.46-2.31-.99-3.03-1.48h-.02Z"/>
    <path class="cls-1" d="M117.77,151.62h-.26c-3.88,0-7.66-.3-11.31-.86l-2.2-.34-1.85,2.71-.07.11c-1.48,2.57-4.79,7.36-9.46,10.52-1.55,1.06-3.73,2.08-6.09,2.94-2.08.76-4.26,1.39-6.36,1.9.53-.76,1.04-1.53,1.53-2.32,1.07-1.76,2.03-3.56,2.62-5.46,1-3.19,1.64-6.46,2.03-8.98s.55-4.26.55-4.32l.02-.23-.02-.58-.07-2.01-1.76-.95c-7.24-3.91-13.14-9.05-17.19-14.94-4.05-5.88-6.29-12.47-6.31-19.46,0-5.71,1.5-11.11,4.23-16.12,4.12-7.5,11.11-14.04,20.08-18.71,8.95-4.67,19.85-7.42,31.6-7.42,15.68,0,29.8,4.91,39.88,12.68,5.04,3.88,9.05,8.45,11.8,13.46.79,1.44,1.46,2.92,2.04,4.44,2.92.88,5.71,1.99,8.31,3.31-.85-3.89-2.25-7.64-4.19-11.13-4.86-8.93-12.95-16.36-22.95-21.58-10.02-5.21-22-8.21-34.86-8.21-17.14,0-32.73,5.34-44.18,14.14-5.72,4.4-10.41,9.69-13.67,15.64-3.28,5.95-5.11,12.58-5.11,19.52,0,8.53,2.77,16.54,7.54,23.46,4.37,6.32,10.41,11.73,17.6,15.96-.09.67-.19,1.48-.35,2.4-.37,2.22-.93,5.02-1.73,7.5-.32,1.02-1.02,2.45-1.92,3.89-1.34,2.18-3.07,4.46-4.46,6.15-.69.85-1.3,1.55-1.73,2.04-.21.25-.39.44-.49.56l-.12.14-.04.04-6.62,7.15,9.65-1.25c.07-.02,4.05-.53,9.07-1.73,2.5-.6,5.28-1.37,8-2.36s5.35-2.18,7.64-3.73c5.28-3.61,8.81-8.37,10.82-11.55,3.29.41,6.66.63,10.09.63,2.45,0,4.88-.12,7.26-.34-2.64-2.03-5-4.28-6.99-6.73h0v.02Z"/>
  </g>
</svg>