<?xml version="1.0" encoding="UTF-8"?>
<svg xmlns="http://www.w3.org/2000/svg" viewBox="0 0 246.34 246.34">
  <defs>
    <style>
      .cls-1 {
        fill: #fff;
        stroke: #fff;
        stroke-miterlimit: 10;
      }

      .cls-2 {
        fill: #eb6518;
      }
    </style>
  </defs>
  <g id="Capa_1" data-name="Capa 1">
    <circle class="cls-2" cx="123.17" cy="123.17" r="123.17"/>
  </g>
  <g id="Capa_2" data-name="Capa 2">
    <path class="cls-1" d="M169.74,75.89c-2.51-2.52-5.24-4.52-8.02-5.91-2.78-1.37-5.6-2.17-8.34-2.17-1.35,0-2.69.2-3.95.66s-2.46,1.2-3.45,2.2l-65.59,66.44-6.93,36.31,35.83-7.02,65.59-66.46c.99-1,1.72-2.2,2.17-3.48s.65-2.63.65-4c0-2.77-.79-5.63-2.14-8.45-1.38-2.82-3.34-5.6-5.83-8.13h0ZM106.33,160.73l-16.65,3.26c0-.12.03-.23.05-.35.03-3.69-2.86-6.71-6.44-6.74-.15,0-.3.03-.46.05l3.2-16.79,53.92-54.64,20.32,20.59-53.95,54.62h0ZM171.34,94.38c-.18.51-.43.89-.74,1.22l-6.06,6.14-20.31-20.58,6.06-6.14c.32-.32.7-.57,1.2-.75s1.14-.29,1.9-.29c1.53,0,3.54.49,5.67,1.55,2.13,1.05,4.36,2.65,6.4,4.72,2.05,2.08,3.63,4.34,4.66,6.48,1.05,2.15,1.53,4.19,1.52,5.74.01.75-.11,1.4-.29,1.91h0Z"/>
  </g>
</svg>