<?xml version="1.0" encoding="UTF-8"?>
<svg id="Capa_1" data-name="Capa 1" xmlns="http://www.w3.org/2000/svg" viewBox="0 0 246.34 246.34">
  <defs>
    <style>
      .cls-1, .cls-2, .cls-3, .cls-4 {
        fill: none;
        stroke: #fff;
        stroke-miterlimit: 10;
      }

      .cls-1, .cls-3 {
        stroke-width: 8px;
      }

      .cls-5 {
        fill: #eb6518;
      }

      .cls-2, .cls-3 {
        stroke-linecap: round;
      }

      .cls-2, .cls-4 {
        stroke-width: 9px;
      }
    </style>
  </defs>
  <g id="Capa_11" data-name="Capa 11">
    <circle class="cls-5" cx="123.17" cy="123.17" r="123.17"/>
  </g>
  <path class="cls-3" d="M101.37,158.37h44.57"/>
  <path class="cls-4" d="M123.71,60.95c0-8.08-.02-16.15-.03-24.23"/>
  <path class="cls-4" d="M196.24,79.7c-8.42,3.68-16.85,7.36-25.27,11.03"/>
  <path class="cls-4" d="M50.64,79.7c8.42,3.68,16.85,7.36,25.27,11.03"/>
  <path class="cls-3" d="M109.26,178.32c-.23.94-1.46,6.45,1.89,10.84,3.47,4.55,9.29,4.55,12.46,4.56,2.97,0,10.15,0,13.36-5.33,2.5-4.15,1.04-8.93.67-10.07"/>
  <path class="cls-1" d="M99.67,102.73c1.41-2.02,3.33-4.44,5.89-6.93,3.52-3.44,6.98-5.76,9.58-7.27"/>
  <path class="cls-2" d="M165.45,113.82c0,12.1-5.4,22.97-13.96,30.43-2.19,1.91-3.67,4.52-4.32,7.35-1.32,5.75-2.64,11.5-3.96,17.25-1.52,6.63-7.42,11.34-14.22,11.34h-11.79c-6.74,0-12.61-4.62-14.19-11.18s-3.08-12.79-4.63-19.19c-.64-2.64-2.03-5.04-3.99-6.92-7.71-7.4-12.49-17.69-12.49-29.09,0-22.53,18.71-40.79,41.78-40.79s41.77,18.26,41.77,40.79h0Z"/>
</svg>