<?xml version="1.0" encoding="UTF-8"?>
<svg xmlns="http://www.w3.org/2000/svg" viewBox="0 0 246.34 246.34">
  <defs>
    <style>
      .cls-1 {
        fill: #fff;
        stroke: #fff;
        stroke-miterlimit: 10;
      }

      .cls-2 {
        fill: #eb6318;
      }
    </style>
  </defs>
  <g id="Capa_1" data-name="Capa 1">
    <circle class="cls-2" cx="123.17" cy="123.17" r="123.17"/>
  </g>
  <g id="Capa_2" data-name="Capa 2">
    <path class="cls-1" d="M108.65,68.63c-23.32,0-42.22,17.88-42.22,39.92s18.89,39.92,42.22,39.92c8.02,0,15.54-2.11,21.92-5.8.38.81.85,1.58,1.49,2.27l24.27,25.92c1.71,1.84,4.14,2.81,6.55,2.81,2.23,0,4.5-.84,6.19-2.45l5.79-5.48c1.71-1.6,2.6-3.74,2.6-5.87,0-2.28-1.03-4.57-2.96-6.2h0l-27.41-22.93c-.73-.6-1.54-1.05-2.38-1.41,3.9-6.06,6.15-13.16,6.15-20.77,0-22.07-18.91-39.94-42.22-39.94h0ZM83.91,131.93c-6.33-5.99-10.24-14.25-10.24-23.38s3.9-17.39,10.24-23.38,15.06-9.68,24.72-9.68,18.39,3.69,24.72,9.68c6.33,5.99,10.24,14.25,10.24,23.38s-3.67,16.8-9.62,22.74l-1.27,1.2c-6.28,5.65-14.72,9.11-24.07,9.11-9.66.02-18.37-3.69-24.72-9.68ZM140.85,135.4c.56,0,1.07.19,1.42.48l27.39,22.97c.38.33.53.69.53,1.06,0,.34-.13.69-.45,1.01l-5.79,5.48c-.35.33-.69.43-1.05.43-.4,0-.76-.14-1.13-.5l-24.27-25.92c-.31-.34-.51-.82-.51-1.34,0-.55.22-1.06.56-1.41.62-.55,1.23-1.13,1.81-1.72.36-.34.91-.55,1.49-.55h0Z"/>
  </g>
</svg>