<?xml version="1.0" encoding="UTF-8"?>
<svg xmlns="http://www.w3.org/2000/svg" viewBox="0 0 246.34 246.34">
  <defs>
    <style>
      .cls-1 {
        fill: #fff;
        stroke: #fff;
        stroke-miterlimit: 10;
      }

      .cls-2 {
        fill: #eb6318;
      }
    </style>
  </defs>
  <g id="Capa_1" data-name="Capa 1">
    <circle class="cls-2" cx="123.17" cy="123.17" r="123.17"/>
  </g>
  <g id="Capa_2" data-name="Capa 2">
    <path class="cls-1" d="M200.61,104.54c-2.18-1.47-4.66-2-7.01-2-2.72,0-5.34.68-7.81,1.57-3.7,1.36-7.06,3.31-9.56,4.92-.37.23-.71.46-1.04.68-4.74-8.06-13.5-13.5-23.52-13.5-9.03,0-17.02,4.4-21.99,11.15-1.77-1.3-3.54-2.36-5.31-3.13-2.88-1.23-5.7-1.75-8.31-1.75-5.25,0-9.55,2-12.51,3.9-.48.3-.93.63-1.34.93-4.97-6.72-12.94-11.12-21.95-11.12-15.09,0-27.31,12.23-27.31,27.31s12.23,27.31,27.31,27.31,27.31-12.23,27.31-27.31c0-3.49-.68-6.81-1.88-9.87.54-.43,1.18-.89,1.93-1.38,2.2-1.38,5.15-2.63,8.42-2.63,1.7,0,3.5.32,5.51,1.16,1.45.63,3,1.55,4.65,2.88-1.18,3.06-1.86,6.36-1.86,9.83,0,15.09,12.23,27.31,27.31,27.31s27.31-12.23,27.31-27.31c0-2.45-.36-4.81-.96-7.06,1.14-.82,2.86-1.98,4.88-3.11,1.73-.98,3.66-1.93,5.54-2.61s3.72-1.07,5.17-1.07c.88,0,1.59.12,2.2.36.89.36,1.57.86,2.31,2.07.71,1.22,1.38,3.22,1.61,6.27l7.13-.55c-.2-2.52-.64-4.72-1.32-6.65-1.02-2.86-2.7-5.17-4.9-6.61h0ZM94.52,137.79c-3.66,3.65-8.67,5.9-14.25,5.9s-10.6-2.25-14.26-5.9c-3.65-3.66-5.9-8.67-5.9-14.26s2.25-10.6,5.9-14.26c3.66-3.65,8.67-5.9,14.26-5.9s10.6,2.25,14.25,5.9c3.65,3.66,5.9,8.67,5.9,14.26s-2.25,10.6-5.9,14.26ZM165.91,137.79c-3.66,3.65-8.67,5.9-14.25,5.9s-10.6-2.25-14.26-5.9c-3.65-3.66-5.9-8.67-5.9-14.26s2.25-10.6,5.9-14.26c3.66-3.65,8.67-5.9,14.26-5.9s10.6,2.25,14.25,5.9c3.65,3.66,5.9,8.67,5.9,14.26s-2.23,10.6-5.9,14.26Z"/>
  </g>
</svg>