<?xml version="1.0" encoding="UTF-8"?>
<svg xmlns="http://www.w3.org/2000/svg" viewBox="0 0 246.34 246.34">
  <defs>
    <style>
      .cls-1 {
        stroke: #fff;
        stroke-miterlimit: 10;
      }

      .cls-1, .cls-2 {
        fill: #fff;
      }

      .cls-3 {
        fill: #eb6318;
      }
    </style>
  </defs>
  <g id="Capa_1" data-name="Capa 1">
    <circle class="cls-3" cx="123.17" cy="123.17" r="123.17"/>
  </g>
  <g id="Capa_2" data-name="Capa 2">
    <path class="cls-1" d="M191.45,123.4c1.76-3.27,3.6-7.91,3.78-13.27.17-5.59-1.45-13.31-9.4-20.28,1.78-6.25,1.98-14.53-4.04-20.73-3.23-3.34-7.88-7.14-15.17-7.14-1.8,0-3.65.24-5.54.72-1.99-3.18-5.19-6.65-10.19-8.99-2.85-1.34-6.14-2.04-9.47-2.04-3.79,0-9.21.89-15.03,4.72-4.11-1.82-10.7-4.02-18.56-4.02s-14.87,2.01-21.6,5.97c-13.21,7.77-19.31,20.97-18.16,39.33-4.37,2.13-8.95,6.23-11.27,13.45-2.55,7.91-1.03,16.82,4.04,24.43-1.17,6.3-.93,15.54,5.16,22.3,4.93,5.48,11.96,8.3,20.9,8.37,1.45,6.15,5.07,14.64,14,19.4,4.67,2.48,9.35,3.7,14.3,3.7,6.14,0,11.45-1.89,16.15-3.58,3.43,1.52,9.35,3.6,15.99,3.6s18.77-2.39,25.43-17.64c6.22-2.13,18.19-7.54,22.13-18.69,2.95-8.49,2.78-20.26-3.43-29.6h0ZM188.23,150.68c-3.97,11.25-20.8,15.3-20.8,15.3-4.44,12.96-12.69,16.36-20.17,16.36-8.27,0-15.56-4.17-15.56-4.17-5.28,1.8-10.63,4.16-16.6,4.16-3.43,0-7.06-.77-11.01-2.88-11.26-6.01-11.29-20.61-11.29-20.61-2.04.26-3.93.38-5.66.38-7.94,0-12.88-2.55-16.05-6.04-6.71-7.47-2.78-19.14-2.78-19.14-6.17-7.42-6.76-15.23-4.96-20.78,3.3-10.23,12.15-10.57,12.15-10.58-2.18-15.77.19-30.09,14.16-38.32,6.36-3.74,12.58-5,18.06-5,11.19,0,19.28,5.24,19.28,5.24,4.95-4.31,10-5.94,14.31-5.94,2.46,0,4.68.52,6.52,1.38,7.88,3.7,9.46,11.56,9.46,11.56,3.69-1.89,6.71-2.62,9.25-2.62,4.74,0,7.76,2.57,10.16,5.03,6.78,6.99.61,18.23.61,18.23,8.67,5.64,11.05,12.09,10.87,17.69-.24,7.79-5.4,13.92-5.4,13.92,8.3,8.28,7.8,20.24,5.47,26.83h0Z"/>
    <path class="cls-2" d="M67.75,189.43c0,2.89-2.35,5.24-5.24,5.24s-5.24-2.35-5.24-5.24,2.35-5.24,5.24-5.24,5.24,2.35,5.24,5.24Z"/>
    <path class="cls-1" d="M78.25,168.55c-5.8,0-10.49,4.7-10.49,10.48s4.7,10.48,10.49,10.48,10.49-4.7,10.49-10.48-4.68-10.48-10.49-10.48ZM80.74,181.51c-.65.65-1.5,1.01-2.48,1.03-.98,0-1.84-.38-2.48-1.03s-1.01-1.5-1.03-2.48c0-.98.38-1.83,1.03-2.48s1.5-1.01,2.48-1.03c.98,0,1.84.38,2.48,1.03s1.01,1.5,1.03,2.48c-.02.98-.4,1.83-1.03,2.48Z"/>
  </g>
</svg>